<mxfile host="65bd71144e">
    <diagram id="cXXxxFhgvLypDgUAAeSp" name="Page-1">
        <mxGraphModel dx="866" dy="566" grid="1" gridSize="16" guides="1" tooltips="1" connect="1" arrows="1" fold="1" page="1" pageScale="1" pageWidth="827" pageHeight="1169" background="#ADADAD" math="0" shadow="0">
            <root>
                <mxCell id="0"/>
                <mxCell id="1" parent="0"/>
                <mxCell id="5" value="" style="edgeStyle=none;html=1;fontSize=22;" parent="1" source="2" target="4" edge="1">
                    <mxGeometry relative="1" as="geometry"/>
                </mxCell>
                <mxCell id="7" value="" style="edgeStyle=none;html=1;fontSize=22;" parent="1" source="2" target="6" edge="1">
                    <mxGeometry relative="1" as="geometry"/>
                </mxCell>
                <mxCell id="2" value="&lt;font style=&quot;font-size: 22px&quot;&gt;3&lt;/font&gt;" style="ellipse;whiteSpace=wrap;html=1;aspect=fixed;" parent="1" vertex="1">
                    <mxGeometry x="390" y="64" width="48" height="48" as="geometry"/>
                </mxCell>
                <mxCell id="14" value="" style="edgeStyle=none;html=1;fontSize=22;" parent="1" source="4" target="13" edge="1">
                    <mxGeometry relative="1" as="geometry"/>
                </mxCell>
                <mxCell id="16" value="" style="edgeStyle=none;html=1;fontSize=22;" parent="1" source="4" target="15" edge="1">
                    <mxGeometry relative="1" as="geometry"/>
                </mxCell>
                <mxCell id="4" value="&lt;font style=&quot;font-size: 22px&quot;&gt;9&lt;/font&gt;" style="ellipse;whiteSpace=wrap;html=1;aspect=fixed;" parent="1" vertex="1">
                    <mxGeometry x="310" y="160" width="48" height="48" as="geometry"/>
                </mxCell>
                <mxCell id="9" value="" style="edgeStyle=none;html=1;fontSize=22;" parent="1" source="6" target="8" edge="1">
                    <mxGeometry relative="1" as="geometry"/>
                </mxCell>
                <mxCell id="10" value="" style="edgeStyle=none;html=1;fontSize=22;" parent="1" source="6" target="8" edge="1">
                    <mxGeometry relative="1" as="geometry"/>
                </mxCell>
                <mxCell id="12" value="" style="edgeStyle=none;html=1;fontSize=22;" parent="1" source="6" target="11" edge="1">
                    <mxGeometry relative="1" as="geometry"/>
                </mxCell>
                <mxCell id="6" value="&lt;font style=&quot;font-size: 22px&quot;&gt;20&lt;/font&gt;" style="ellipse;whiteSpace=wrap;html=1;aspect=fixed;" parent="1" vertex="1">
                    <mxGeometry x="484" y="160" width="48" height="48" as="geometry"/>
                </mxCell>
                <mxCell id="8" value="&lt;font style=&quot;font-size: 22px&quot;&gt;15&lt;/font&gt;" style="ellipse;whiteSpace=wrap;html=1;aspect=fixed;" parent="1" vertex="1">
                    <mxGeometry x="436" y="272" width="48" height="48" as="geometry"/>
                </mxCell>
                <mxCell id="11" value="&lt;font style=&quot;font-size: 22px&quot;&gt;7&lt;/font&gt;" style="ellipse;whiteSpace=wrap;html=1;aspect=fixed;" parent="1" vertex="1">
                    <mxGeometry x="550" y="272" width="48" height="48" as="geometry"/>
                </mxCell>
                <mxCell id="13" value="&lt;font style=&quot;font-size: 22px&quot;&gt;11&lt;/font&gt;" style="ellipse;whiteSpace=wrap;html=1;aspect=fixed;" parent="1" vertex="1">
                    <mxGeometry x="342" y="272" width="48" height="48" as="geometry"/>
                </mxCell>
                <mxCell id="15" value="&lt;font style=&quot;font-size: 22px&quot;&gt;3&lt;/font&gt;" style="ellipse;whiteSpace=wrap;html=1;aspect=fixed;" parent="1" vertex="1">
                    <mxGeometry x="230" y="272" width="48" height="48" as="geometry"/>
                </mxCell>
                <mxCell id="17" value="遮擋用的（一次只能看到 root left right）" style="rounded=0;whiteSpace=wrap;html=1;fontSize=22;fillColor=#0F0F0F;strokeColor=none;opacity=50;" parent="1" vertex="1">
                    <mxGeometry x="176" y="224" width="512" height="144" as="geometry"/>
                </mxCell>
                <mxCell id="18" value="[[3], [9, 20], [3,11,15,7]]" style="text;html=1;strokeColor=none;fillColor=none;align=center;verticalAlign=middle;whiteSpace=wrap;rounded=0;fontSize=22;opacity=50;" parent="1" vertex="1">
                    <mxGeometry x="444" y="64" width="244" height="32" as="geometry"/>
                </mxCell>
                <mxCell id="24" value="[[15]]" style="text;html=1;align=center;verticalAlign=middle;resizable=0;points=[];autosize=1;strokeColor=none;fillColor=none;fontSize=17;" parent="1" vertex="1">
                    <mxGeometry x="420" y="330" width="64" height="32" as="geometry"/>
                </mxCell>
                <mxCell id="25" value="[[7]]" style="text;html=1;align=center;verticalAlign=middle;resizable=0;points=[];autosize=1;strokeColor=none;fillColor=none;fontSize=17;" parent="1" vertex="1">
                    <mxGeometry x="556" y="330" width="48" height="32" as="geometry"/>
                </mxCell>
                <mxCell id="26" value="[[20], [15,7]]" style="text;html=1;align=center;verticalAlign=middle;resizable=0;points=[];autosize=1;strokeColor=none;fillColor=none;fontSize=17;" parent="1" vertex="1">
                    <mxGeometry x="550" y="168" width="112" height="32" as="geometry"/>
                </mxCell>
                <mxCell id="27" value="[[9], [3,11]]" style="text;html=1;align=center;verticalAlign=middle;resizable=0;points=[];autosize=1;strokeColor=none;fillColor=none;fontSize=17;" parent="1" vertex="1">
                    <mxGeometry x="206" y="168" width="96" height="32" as="geometry"/>
                </mxCell>
                <mxCell id="28" value="" style="edgeStyle=none;html=1;fontSize=22;" parent="1" source="30" target="33" edge="1">
                    <mxGeometry relative="1" as="geometry"/>
                </mxCell>
                <mxCell id="29" value="" style="edgeStyle=none;html=1;fontSize=22;" parent="1" source="30" target="37" edge="1">
                    <mxGeometry relative="1" as="geometry"/>
                </mxCell>
                <mxCell id="30" value="&lt;font style=&quot;font-size: 22px&quot;&gt;3&lt;/font&gt;" style="ellipse;whiteSpace=wrap;html=1;aspect=fixed;" parent="1" vertex="1">
                    <mxGeometry x="1011" y="80" width="48" height="48" as="geometry"/>
                </mxCell>
                <mxCell id="31" value="" style="edgeStyle=none;html=1;fontSize=22;" parent="1" source="33" target="40" edge="1">
                    <mxGeometry relative="1" as="geometry"/>
                </mxCell>
                <mxCell id="32" value="" style="edgeStyle=none;html=1;fontSize=22;" parent="1" source="33" target="41" edge="1">
                    <mxGeometry relative="1" as="geometry"/>
                </mxCell>
                <mxCell id="33" value="&lt;font style=&quot;font-size: 22px&quot;&gt;9&lt;/font&gt;" style="ellipse;whiteSpace=wrap;html=1;aspect=fixed;" parent="1" vertex="1">
                    <mxGeometry x="931" y="176" width="48" height="48" as="geometry"/>
                </mxCell>
                <mxCell id="34" value="" style="edgeStyle=none;html=1;fontSize=22;" parent="1" source="37" target="38" edge="1">
                    <mxGeometry relative="1" as="geometry"/>
                </mxCell>
                <mxCell id="35" value="" style="edgeStyle=none;html=1;fontSize=22;" parent="1" source="37" target="38" edge="1">
                    <mxGeometry relative="1" as="geometry"/>
                </mxCell>
                <mxCell id="36" value="" style="edgeStyle=none;html=1;fontSize=22;" parent="1" source="37" target="39" edge="1">
                    <mxGeometry relative="1" as="geometry"/>
                </mxCell>
                <mxCell id="37" value="&lt;font style=&quot;font-size: 22px&quot;&gt;20&lt;/font&gt;" style="ellipse;whiteSpace=wrap;html=1;aspect=fixed;" parent="1" vertex="1">
                    <mxGeometry x="1105" y="176" width="48" height="48" as="geometry"/>
                </mxCell>
                <mxCell id="38" value="&lt;font style=&quot;font-size: 22px&quot;&gt;15&lt;/font&gt;" style="ellipse;whiteSpace=wrap;html=1;aspect=fixed;" parent="1" vertex="1">
                    <mxGeometry x="1057" y="288" width="48" height="48" as="geometry"/>
                </mxCell>
                <mxCell id="39" value="&lt;font style=&quot;font-size: 22px&quot;&gt;7&lt;/font&gt;" style="ellipse;whiteSpace=wrap;html=1;aspect=fixed;" parent="1" vertex="1">
                    <mxGeometry x="1171" y="288" width="48" height="48" as="geometry"/>
                </mxCell>
                <mxCell id="48" value="" style="edgeStyle=none;html=1;fontSize=17;" parent="1" source="40" target="47" edge="1">
                    <mxGeometry relative="1" as="geometry"/>
                </mxCell>
                <mxCell id="40" value="&lt;font style=&quot;font-size: 22px&quot;&gt;11&lt;/font&gt;" style="ellipse;whiteSpace=wrap;html=1;aspect=fixed;" parent="1" vertex="1">
                    <mxGeometry x="963" y="288" width="48" height="48" as="geometry"/>
                </mxCell>
                <mxCell id="41" value="&lt;font style=&quot;font-size: 22px&quot;&gt;3&lt;/font&gt;" style="ellipse;whiteSpace=wrap;html=1;aspect=fixed;" parent="1" vertex="1">
                    <mxGeometry x="851" y="288" width="48" height="48" as="geometry"/>
                </mxCell>
                <mxCell id="42" value="&lt;span style=&quot;font-size: 19px&quot;&gt;[&lt;font color=&quot;#ff9933&quot;&gt;[3]&lt;/font&gt;, [9,20], [3,11, 15,7], [8]]&lt;/span&gt;" style="text;html=1;strokeColor=none;fillColor=none;align=center;verticalAlign=middle;whiteSpace=wrap;rounded=0;fontSize=22;opacity=50;" parent="1" vertex="1">
                    <mxGeometry x="1065" y="80" width="244" height="32" as="geometry"/>
                </mxCell>
                <mxCell id="43" value="[[15]]" style="text;html=1;align=center;verticalAlign=middle;resizable=0;points=[];autosize=1;strokeColor=none;fillColor=none;fontSize=17;" parent="1" vertex="1">
                    <mxGeometry x="1041" y="346" width="64" height="32" as="geometry"/>
                </mxCell>
                <mxCell id="44" value="[[7]]" style="text;html=1;align=center;verticalAlign=middle;resizable=0;points=[];autosize=1;strokeColor=none;fillColor=none;fontSize=17;" parent="1" vertex="1">
                    <mxGeometry x="1177" y="346" width="48" height="32" as="geometry"/>
                </mxCell>
                <mxCell id="45" value="[&lt;font color=&quot;#ff9933&quot;&gt;[20]&lt;/font&gt;, [15,7]]" style="text;html=1;align=center;verticalAlign=middle;resizable=0;points=[];autosize=1;strokeColor=none;fillColor=none;fontSize=17;" parent="1" vertex="1">
                    <mxGeometry x="1171" y="184" width="112" height="32" as="geometry"/>
                </mxCell>
                <mxCell id="46" value="[&lt;font color=&quot;#ff9933&quot;&gt;[9]&lt;/font&gt;, [3, 11], [8]]" style="text;html=1;align=center;verticalAlign=middle;resizable=0;points=[];autosize=1;strokeColor=none;fillColor=none;fontSize=17;" parent="1" vertex="1">
                    <mxGeometry x="787" y="184" width="144" height="32" as="geometry"/>
                </mxCell>
                <mxCell id="47" value="&lt;font style=&quot;font-size: 22px&quot;&gt;8&lt;/font&gt;" style="ellipse;whiteSpace=wrap;html=1;aspect=fixed;" parent="1" vertex="1">
                    <mxGeometry x="915" y="384" width="48" height="48" as="geometry"/>
                </mxCell>
                <mxCell id="49" value="[[8]]" style="text;html=1;align=center;verticalAlign=middle;resizable=0;points=[];autosize=1;strokeColor=none;fillColor=none;fontSize=17;" parent="1" vertex="1">
                    <mxGeometry x="915" y="433" width="48" height="32" as="geometry"/>
                </mxCell>
                <mxCell id="50" value="[&lt;font color=&quot;#ff9933&quot;&gt;[11]&lt;/font&gt;, [8]]" style="text;html=1;align=center;verticalAlign=middle;resizable=0;points=[];autosize=1;strokeColor=none;fillColor=none;fontSize=17;" parent="1" vertex="1">
                    <mxGeometry x="969" y="256" width="96" height="32" as="geometry"/>
                </mxCell>
                <mxCell id="51" value="[[3]]" style="text;html=1;align=center;verticalAlign=middle;resizable=0;points=[];autosize=1;strokeColor=none;fillColor=none;fontSize=17;" parent="1" vertex="1">
                    <mxGeometry x="851" y="346" width="48" height="32" as="geometry"/>
                </mxCell>
                <mxCell id="52" value="" style="shape=flexArrow;endArrow=classic;html=1;fontSize=19;fillColor=#647687;strokeColor=#314354;" parent="1" edge="1">
                    <mxGeometry width="50" height="50" relative="1" as="geometry">
                        <mxPoint x="768" y="433" as="sourcePoint"/>
                        <mxPoint x="768" y="31" as="targetPoint"/>
                    </mxGeometry>
                </mxCell>
                <mxCell id="53" value="&lt;font style=&quot;font-size: 16px&quot;&gt;依照 sub array 順序 merge&lt;/font&gt;" style="text;html=1;align=center;verticalAlign=middle;resizable=0;points=[];autosize=1;strokeColor=none;fillColor=none;fontSize=19;" parent="1" vertex="1">
                    <mxGeometry x="667" y="448" width="208" height="32" as="geometry"/>
                </mxCell>
                <mxCell id="54" value="&lt;div style=&quot;color: rgb(212 , 212 , 212) ; background-color: rgb(30 , 30 , 30) ; font-family: &amp;#34;menlo&amp;#34; , &amp;#34;monaco&amp;#34; , &amp;#34;courier new&amp;#34; , monospace ; font-weight: bold ; font-size: 14px ; line-height: 21px&quot;&gt;&lt;div&gt;&lt;span style=&quot;color: #c586c0&quot;&gt;def&lt;/span&gt; &lt;span style=&quot;color: #dcdcaa&quot;&gt;level_order&lt;/span&gt;(&lt;span style=&quot;color: #9cdcfe&quot;&gt;root&lt;/span&gt;)&lt;/div&gt;&lt;div&gt;  &lt;span style=&quot;color: #c586c0&quot;&gt;&amp;nbsp; return&lt;/span&gt; [] &lt;span style=&quot;color: #c586c0&quot;&gt;if&lt;/span&gt; &lt;span style=&quot;color: #9cdcfe&quot;&gt;root&lt;/span&gt;.&lt;span style=&quot;color: #dcdcaa&quot;&gt;nil?&lt;/span&gt;&lt;/div&gt;&lt;div&gt;  &lt;span style=&quot;color: #c586c0&quot;&gt;&amp;nbsp; return&lt;/span&gt; [[&lt;span style=&quot;color: #9cdcfe&quot;&gt;root&lt;/span&gt;.&lt;span style=&quot;color: #dcdcaa&quot;&gt;val&lt;/span&gt;]] &lt;span style=&quot;color: #c586c0&quot;&gt;if&lt;/span&gt; &lt;span style=&quot;color: #9cdcfe&quot;&gt;root&lt;/span&gt;.&lt;span style=&quot;color: #dcdcaa&quot;&gt;left&lt;/span&gt;.&lt;span style=&quot;color: #dcdcaa&quot;&gt;nil?&lt;/span&gt; &amp;amp;&amp;amp; &lt;span style=&quot;color: #9cdcfe&quot;&gt;root&lt;/span&gt;.&lt;span style=&quot;color: #dcdcaa&quot;&gt;right&lt;/span&gt;.&lt;span style=&quot;color: #dcdcaa&quot;&gt;nil?&lt;/span&gt;&lt;/div&gt;&lt;br&gt;&lt;div&gt;  &lt;span style=&quot;color: #c586c0&quot;&gt;&amp;nbsp; if&lt;/span&gt; &lt;span style=&quot;color: #9cdcfe&quot;&gt;root&lt;/span&gt;.&lt;span style=&quot;color: #dcdcaa&quot;&gt;left&lt;/span&gt; &amp;amp;&amp;amp; &lt;span style=&quot;color: #9cdcfe&quot;&gt;root&lt;/span&gt;.&lt;span style=&quot;color: #dcdcaa&quot;&gt;right&lt;/span&gt;&lt;/div&gt;&lt;div&gt;&amp;nbsp; &amp;nbsp; [[&lt;span style=&quot;color: #9cdcfe&quot;&gt;root&lt;/span&gt;.&lt;span style=&quot;color: #dcdcaa&quot;&gt;val&lt;/span&gt;], *&lt;span style=&quot;color: #dcdcaa&quot;&gt;merge_array&lt;/span&gt;(&lt;span style=&quot;color: #dcdcaa&quot;&gt;level_order&lt;/span&gt;(&lt;span style=&quot;color: #9cdcfe&quot;&gt;root&lt;/span&gt;.&lt;span style=&quot;color: #dcdcaa&quot;&gt;left&lt;/span&gt;), &lt;span style=&quot;color: #dcdcaa&quot;&gt;level_order&lt;/span&gt;(&lt;span style=&quot;color: #9cdcfe&quot;&gt;root&lt;/span&gt;.&lt;span style=&quot;color: #dcdcaa&quot;&gt;right&lt;/span&gt;))]&lt;/div&gt;&lt;div&gt;  &lt;span style=&quot;color: #c586c0&quot;&gt;&amp;nbsp; elsif&lt;/span&gt; &lt;span style=&quot;color: #9cdcfe&quot;&gt;root&lt;/span&gt;.&lt;span style=&quot;color: #dcdcaa&quot;&gt;left&lt;/span&gt;&lt;/div&gt;&lt;div&gt;&amp;nbsp; &amp;nbsp; [[&lt;span style=&quot;color: #9cdcfe&quot;&gt;root&lt;/span&gt;.&lt;span style=&quot;color: #dcdcaa&quot;&gt;val&lt;/span&gt;], *&lt;span style=&quot;color: #dcdcaa&quot;&gt;level_order&lt;/span&gt;(&lt;span style=&quot;color: #9cdcfe&quot;&gt;root&lt;/span&gt;.&lt;span style=&quot;color: #dcdcaa&quot;&gt;left&lt;/span&gt;)]&lt;/div&gt;&lt;div&gt;  &lt;span style=&quot;color: #c586c0&quot;&gt;&amp;nbsp; else&lt;/span&gt; &lt;span style=&quot;color: #6a9955&quot;&gt;# root.right&lt;/span&gt;&lt;/div&gt;&lt;div&gt;&amp;nbsp; &amp;nbsp; [[&lt;span style=&quot;color: #9cdcfe&quot;&gt;root&lt;/span&gt;.&lt;span style=&quot;color: #dcdcaa&quot;&gt;val&lt;/span&gt;], *&lt;span style=&quot;color: #dcdcaa&quot;&gt;level_order&lt;/span&gt;(&lt;span style=&quot;color: #9cdcfe&quot;&gt;root&lt;/span&gt;.&lt;span style=&quot;color: #dcdcaa&quot;&gt;right&lt;/span&gt;)]&lt;/div&gt;&lt;div&gt;  &lt;span style=&quot;color: #c586c0&quot;&gt;&amp;nbsp; end&lt;/span&gt;&lt;/div&gt;&lt;div&gt;&lt;span style=&quot;color: #c586c0&quot;&gt;end&lt;/span&gt;&lt;/div&gt;&lt;/div&gt;" style="text;html=1;align=left;verticalAlign=middle;resizable=0;points=[];autosize=1;strokeColor=none;fillColor=none;fontSize=16;" parent="1" vertex="1">
                    <mxGeometry x="969" y="528" width="688" height="256" as="geometry"/>
                </mxCell>
                <mxCell id="55" value="&lt;font&gt;merge&amp;nbsp;&lt;span style=&quot;font-size: 17px&quot;&gt;[[3, 11], [8]]&amp;nbsp;&lt;/span&gt;and [[15,7]]&lt;br&gt;= [[3,11,15,7], [8]]&lt;br&gt;&lt;/font&gt;" style="text;html=1;align=left;verticalAlign=middle;resizable=0;points=[];autosize=1;strokeColor=none;fillColor=none;fontSize=16;fontColor=#FFFFFF;" parent="1" vertex="1">
                    <mxGeometry x="1171" y="400" width="240" height="48" as="geometry"/>
                </mxCell>
                <mxCell id="56" value="&lt;div style=&quot;color: rgb(212 , 212 , 212) ; background-color: rgb(30 , 30 , 30) ; font-family: &amp;#34;menlo&amp;#34; , &amp;#34;monaco&amp;#34; , &amp;#34;courier new&amp;#34; , monospace ; font-weight: bold ; font-size: 14px ; line-height: 21px&quot;&gt;&lt;div&gt;&lt;span style=&quot;color: #c586c0&quot;&gt;def&lt;/span&gt; &lt;span style=&quot;color: #dcdcaa&quot;&gt;merge_array&lt;/span&gt;(&lt;span style=&quot;color: #9cdcfe&quot;&gt;left&lt;/span&gt;, &lt;span style=&quot;color: #9cdcfe&quot;&gt;right&lt;/span&gt;)&lt;/div&gt;&lt;div&gt;&lt;span style=&quot;color: #9cdcfe&quot;&gt;&amp;nbsp; size&lt;/span&gt; = &lt;span style=&quot;color: #9cdcfe&quot;&gt;left&lt;/span&gt;.&lt;span style=&quot;color: #dcdcaa&quot;&gt;size&lt;/span&gt; &amp;gt; &lt;span style=&quot;color: #9cdcfe&quot;&gt;right&lt;/span&gt;.&lt;span style=&quot;color: #dcdcaa&quot;&gt;size&lt;/span&gt; ? &lt;span style=&quot;color: #9cdcfe&quot;&gt;left&lt;/span&gt;.&lt;span style=&quot;color: #dcdcaa&quot;&gt;size&lt;/span&gt; : &lt;span style=&quot;color: #9cdcfe&quot;&gt;right&lt;/span&gt;.&lt;span style=&quot;color: #dcdcaa&quot;&gt;size&lt;/span&gt;&lt;/div&gt;&lt;div&gt;&lt;span style=&quot;color: #b5cea8&quot;&gt;&amp;nbsp; 0&lt;/span&gt;.&lt;span style=&quot;color: #dcdcaa&quot;&gt;upto&lt;/span&gt;(&lt;span style=&quot;color: #9cdcfe&quot;&gt;size&lt;/span&gt;-&lt;span style=&quot;color: #b5cea8&quot;&gt;1&lt;/span&gt;) &lt;span style=&quot;color: #c586c0&quot;&gt;do&lt;/span&gt; |&lt;span style=&quot;color: #9cdcfe&quot;&gt;i&lt;/span&gt;|&lt;/div&gt;&lt;div&gt;&lt;span style=&quot;color: #c586c0&quot;&gt;&amp;nbsp; &amp;nbsp; break&lt;/span&gt; &lt;span style=&quot;color: #c586c0&quot;&gt;if&lt;/span&gt; !&lt;span style=&quot;color: #9cdcfe&quot;&gt;right&lt;/span&gt;[&lt;span style=&quot;color: #9cdcfe&quot;&gt;i&lt;/span&gt;]&lt;/div&gt;&lt;br&gt;&lt;div&gt;&lt;span style=&quot;color: #c586c0&quot;&gt;&amp;nbsp; &amp;nbsp; if&lt;/span&gt; &lt;span style=&quot;color: #9cdcfe&quot;&gt;left&lt;/span&gt;[&lt;span style=&quot;color: #9cdcfe&quot;&gt;i&lt;/span&gt;]&lt;/div&gt;&lt;div&gt;&lt;span style=&quot;color: #9cdcfe&quot;&gt;&amp;nbsp; &amp;nbsp; &amp;nbsp; left&lt;/span&gt;[&lt;span style=&quot;color: #9cdcfe&quot;&gt;i&lt;/span&gt;].&lt;span style=&quot;color: #dcdcaa&quot;&gt;concat&lt;/span&gt;(&lt;span style=&quot;color: #9cdcfe&quot;&gt;right&lt;/span&gt;[&lt;span style=&quot;color: #9cdcfe&quot;&gt;i&lt;/span&gt;])&lt;/div&gt;&lt;div&gt;&lt;span style=&quot;color: #c586c0&quot;&gt;&amp;nbsp; &amp;nbsp; else&lt;/span&gt;&lt;/div&gt;&lt;div&gt;&lt;span style=&quot;color: #9cdcfe&quot;&gt;&amp;nbsp; &amp;nbsp; &amp;nbsp; left&lt;/span&gt;[&lt;span style=&quot;color: #9cdcfe&quot;&gt;i&lt;/span&gt;] = &lt;span style=&quot;color: #9cdcfe&quot;&gt;right&lt;/span&gt;[&lt;span style=&quot;color: #9cdcfe&quot;&gt;i&lt;/span&gt;]&lt;/div&gt;&lt;div&gt;&lt;span style=&quot;color: #c586c0&quot;&gt;&amp;nbsp; &amp;nbsp; end&lt;/span&gt;&lt;/div&gt;&lt;div&gt;&lt;span style=&quot;color: #c586c0&quot;&gt;&amp;nbsp; end&lt;/span&gt;&lt;/div&gt;&lt;br&gt;&lt;div&gt;&lt;span style=&quot;color: #9cdcfe&quot;&gt;&amp;nbsp; left&lt;/span&gt;&lt;/div&gt;&lt;div&gt;&lt;span style=&quot;color: #c586c0&quot;&gt;end&lt;/span&gt;&lt;/div&gt;&lt;/div&gt;" style="text;html=1;align=left;verticalAlign=middle;resizable=0;points=[];autosize=1;strokeColor=none;fillColor=none;fontSize=16;fontColor=#FFFFFF;" parent="1" vertex="1">
                    <mxGeometry x="1392" y="74" width="496" height="304" as="geometry"/>
                </mxCell>
                <mxCell id="57" value="先畫圖，畫出我在每個 node 想要的結果，再用 recursive 去拼湊出來。" style="text;html=1;align=center;verticalAlign=middle;resizable=0;points=[];autosize=1;strokeColor=none;fillColor=none;fontSize=16;fontColor=#1A1A1A;" parent="1" vertex="1">
                    <mxGeometry x="176" y="608" width="528" height="32" as="geometry"/>
                </mxCell>
                <mxCell id="58" value="github@harryuan65" style="text;html=1;align=center;verticalAlign=middle;resizable=0;points=[];autosize=1;strokeColor=none;fillColor=none;fontSize=16;fontColor=#FFFFFF;" parent="1" vertex="1">
                    <mxGeometry x="1712" width="160" height="32" as="geometry"/>
                </mxCell>
            </root>
        </mxGraphModel>
    </diagram>
</mxfile>